<svg width="100" height="26" fill="none" xmlns="http://www.w3.org/2000/svg"><path d="M14.797 11.864a4.95 4.95 0 0 1 2.357-4.153 5.066 5.066 0 0 0-3.991-2.157C11.483 5.378 9.856 6.559 9 6.559c-.872 0-2.19-.988-3.609-.958A5.315 5.315 0 0 0 .918 8.328c-1.934 3.349-.491 8.27 1.362 10.977.926 1.325 2.01 2.805 3.427 2.753 1.387-.058 1.905-.885 3.58-.885 1.658 0 2.144.885 3.59.851 1.489-.024 2.427-1.33 3.321-2.669a10.96 10.96 0 0 0 1.519-3.092 4.781 4.781 0 0 1-2.92-4.4ZM12.065 3.774a4.872 4.872 0 0 0 1.114-3.49 4.957 4.957 0 0 0-3.207 1.659 4.636 4.636 0 0 0-1.144 3.361 4.1 4.1 0 0 0 3.237-1.53ZM32.33 18.703h-4.733l-1.137 3.356h-2.005L28.94 9.641h2.082l4.484 12.418h-2.04l-1.135-3.356Zm-4.243-1.55h3.752l-1.85-5.446h-.052l-1.85 5.447ZM45.187 17.533c0 2.813-1.506 4.62-3.779 4.62a3.069 3.069 0 0 1-2.848-1.583h-.043v4.484h-1.859V13.005h1.8v1.506h.033a3.211 3.211 0 0 1 2.883-1.6c2.298 0 3.813 1.816 3.813 4.622Zm-1.91 0c0-1.833-.948-3.038-2.393-3.038-1.42 0-2.375 1.23-2.375 3.038 0 1.824.955 3.046 2.375 3.046 1.445 0 2.392-1.197 2.392-3.046ZM55.151 17.533c0 2.813-1.506 4.62-3.778 4.62a3.069 3.069 0 0 1-2.849-1.583h-.043v4.484h-1.858V13.005h1.799v1.506h.034a3.211 3.211 0 0 1 2.883-1.6c2.298 0 3.812 1.816 3.812 4.622Zm-1.91 0c0-1.833-.947-3.038-2.392-3.038-1.42 0-2.375 1.23-2.375 3.038 0 1.824.955 3.046 2.375 3.046 1.445 0 2.392-1.197 2.392-3.046ZM61.738 18.6c.138 1.23 1.334 2.04 2.97 2.04 1.566 0 2.692-.81 2.692-1.92 0-.964-.68-1.54-2.289-1.936l-1.609-.388c-2.28-.55-3.339-1.617-3.339-3.348 0-2.142 1.867-3.614 4.519-3.614 2.624 0 4.422 1.472 4.483 3.614H67.29c-.112-1.239-1.137-1.987-2.634-1.987-1.497 0-2.521.757-2.521 1.858 0 .878.654 1.395 2.255 1.79l1.368.336c2.548.603 3.606 1.626 3.606 3.443 0 2.323-1.85 3.778-4.794 3.778-2.754 0-4.613-1.42-4.733-3.667h1.902ZM73.375 10.863v2.142h1.722v1.472h-1.722v4.991c0 .776.345 1.137 1.102 1.137.204-.004.408-.018.61-.043v1.463c-.34.064-.685.092-1.031.086-1.833 0-2.548-.689-2.548-2.445v-5.189H70.19v-1.472h1.317v-2.142h1.867ZM76.094 17.533c0-2.849 1.678-4.639 4.294-4.639 2.625 0 4.295 1.79 4.295 4.639 0 2.856-1.662 4.638-4.295 4.638s-4.294-1.782-4.294-4.638Zm6.695 0c0-1.954-.895-3.108-2.401-3.108-1.506 0-2.4 1.162-2.4 3.108 0 1.962.894 3.106 2.4 3.106 1.505 0 2.401-1.144 2.401-3.106ZM86.213 13.005h1.772v1.541h.043a2.16 2.16 0 0 1 2.178-1.635c.214-.001.428.022.637.07v1.737a2.597 2.597 0 0 0-.835-.112 1.872 1.872 0 0 0-1.937 2.083v5.37h-1.858v-9.054ZM99.413 19.4c-.25 1.644-1.85 2.771-3.898 2.771-2.634 0-4.269-1.764-4.269-4.595 0-2.84 1.644-4.682 4.19-4.682 2.505 0 4.08 1.72 4.08 4.466v.637h-6.394v.112a2.358 2.358 0 0 0 2.436 2.564 2.048 2.048 0 0 0 2.09-1.273h1.765Zm-6.282-2.702h4.526a2.177 2.177 0 0 0-2.22-2.298 2.29 2.29 0 0 0-2.306 2.298ZM27.855.294a2.64 2.64 0 0 1 2.807 2.965c0 1.906-1.03 3.002-2.807 3.002h-2.156V.294h2.155Zm-1.229 5.123h1.125a1.876 1.876 0 0 0 1.968-2.146 1.881 1.881 0 0 0-1.968-2.134h-1.125v4.28ZM31.71 4.007a2.134 2.134 0 1 1 4.246 0 2.133 2.133 0 1 1-4.247 0Zm3.332 0c0-.976-.438-1.547-1.208-1.547-.772 0-1.207.571-1.207 1.547 0 .984.435 1.55 1.207 1.55.77 0 1.208-.57 1.208-1.55ZM41.602 6.26h-.922l-.931-3.316h-.07l-.927 3.317h-.913l-1.241-4.503h.901l.807 3.436h.066l.926-3.436h.852l.926 3.436h.07l.803-3.436h.889L41.602 6.26ZM43.88 1.758h.856v.715h.067a1.348 1.348 0 0 1 1.344-.802 1.464 1.464 0 0 1 1.558 1.675V6.26h-.889V3.569c0-.724-.314-1.084-.971-1.084a1.033 1.033 0 0 0-1.075 1.142V6.26h-.89V1.758ZM49.121 0h.889v6.26h-.889V0ZM51.246 4.007a2.134 2.134 0 1 1 4.248 0 2.134 2.134 0 1 1-4.248 0Zm3.333 0c0-.976-.438-1.547-1.208-1.547-.772 0-1.207.571-1.207 1.547 0 .984.435 1.55 1.207 1.55.77 0 1.208-.57 1.208-1.55ZM56.43 4.987c0-.81.603-1.278 1.675-1.344l1.22-.07v-.389c0-.476-.315-.744-.923-.744-.496 0-.84.182-.938.5h-.86c.09-.773.818-1.27 1.84-1.27 1.128 0 1.765.563 1.765 1.514v3.077h-.856v-.633h-.07a1.515 1.515 0 0 1-1.352.707 1.36 1.36 0 0 1-1.501-1.348Zm2.894-.384v-.377l-1.1.07c-.62.042-.9.253-.9.65 0 .405.35.64.834.64a1.062 1.062 0 0 0 1.166-.983ZM61.377 4.007c0-1.423.731-2.324 1.87-2.324a1.484 1.484 0 0 1 1.38.79h.066V0h.889v6.26h-.851v-.71h-.07a1.563 1.563 0 0 1-1.415.785c-1.145 0-1.869-.901-1.869-2.328Zm.918 0c0 .955.45 1.53 1.203 1.53.75 0 1.212-.583 1.212-1.526 0-.938-.468-1.53-1.212-1.53-.748 0-1.203.58-1.203 1.526ZM69.258 4.007a2.132 2.132 0 1 1 4.247 0 2.134 2.134 0 1 1-4.247 0Zm3.333 0c0-.976-.438-1.547-1.208-1.547-.772 0-1.207.571-1.207 1.547 0 .984.435 1.55 1.207 1.55.77 0 1.208-.57 1.208-1.55ZM74.697 1.758h.856v.715h.066a1.348 1.348 0 0 1 1.344-.802 1.464 1.464 0 0 1 1.559 1.675V6.26h-.89V3.569c0-.724-.314-1.084-.97-1.084a1.033 1.033 0 0 0-1.076 1.142V6.26h-.889V1.758ZM83.544.637v1.141h.975v.749h-.975v2.315c0 .472.194.679.637.679.113 0 .226-.008.338-.021v.74c-.16.029-.32.044-.483.046-.988 0-1.382-.348-1.382-1.216V2.527h-.715v-.749h.715V.637h.89ZM85.732 0h.881v2.481h.07a1.385 1.385 0 0 1 1.374-.806 1.483 1.483 0 0 1 1.55 1.679V6.26h-.89V3.573c0-.72-.334-1.084-.962-1.084a1.052 1.052 0 0 0-1.134 1.142v2.63h-.888V0ZM94.789 5.045a1.828 1.828 0 0 1-1.951 1.303 2.045 2.045 0 0 1-2.08-2.324 2.077 2.077 0 0 1 2.076-2.353c1.253 0 2.008.856 2.008 2.27v.31h-3.18v.05a1.19 1.19 0 0 0 1.2 1.29 1.08 1.08 0 0 0 1.071-.546h.856Zm-3.126-1.451h2.274a1.086 1.086 0 0 0-1.108-1.167 1.152 1.152 0 0 0-1.166 1.167Z" fill="#fff"/></svg>