<svg width="116" height="28" fill="none" xmlns="http://www.w3.org/2000/svg"><path d="M61.12 6.466c-.902 0-1.662-.316-2.263-.94a3.209 3.209 0 0 1-.914-2.294c0-.91.308-1.68.914-2.292.598-.623 1.358-.94 2.26-.94.891 0 1.651.317 2.262.94.606.631.914 1.402.914 2.292-.01.913-.318 1.683-.914 2.292-.598.628-1.358.942-2.26.942Zm-26.825 0a3.136 3.136 0 0 1-2.273-.927c-.62-.614-.936-1.39-.936-2.305 0-.915.315-1.69.936-2.304.614-.616 1.379-.928 2.273-.928.437 0 .861.088 1.269.265.4.172.725.406.966.693l.06.072-.674.664-.07-.083c-.38-.453-.888-.675-1.561-.675-.601 0-1.125.214-1.557.638-.435.426-.656.985-.656 1.66 0 .677.22 1.235.655 1.662.433.424.957.638 1.558.638.64 0 1.18-.214 1.6-.638.247-.25.401-.599.456-1.04h-2.158v-.933h3.084l.013.085c.022.157.044.32.044.469 0 .86-.258 1.556-.77 2.07-.58.608-1.34.917-2.26.917Zm35.665-.132h-.95l-2.914-4.68.025.842v3.836h-.951V.135h1.085l.03.047 2.74 4.409-.026-.84V.135h.962v6.2Zm-15.988 0h-.964V1.067h-1.671V.135h4.303v.932h-1.67v5.267h.002Zm-3.42 0h-.961v-6.2h.96v6.2Zm-5.402 0h-.961V1.067h-1.671V.135h4.303v.932h-1.67v5.267Zm-3.24-.01h-3.686V.134h3.685v.933h-2.722v1.701h2.456v.923h-2.456v1.7h2.722v.933Zm17.652-1.439c.43.432.951.649 1.557.649.623 0 1.133-.212 1.557-.649.422-.424.636-.98.636-1.65 0-.671-.213-1.23-.633-1.651a2.126 2.126 0 0 0-1.557-.649c-.624 0-1.133.212-1.555.649-.422.423-.636.98-.636 1.65 0 .671.211 1.23.631 1.651Z" fill="#FF553E"/><path fill-rule="evenodd" clip-rule="evenodd" d="M57.853 14.99c-2.347 0-4.25 1.788-4.25 4.254 0 2.444 1.915 4.255 4.25 4.255 2.347 0 4.25-1.801 4.25-4.255 0-2.466-1.903-4.254-4.25-4.254Zm0 6.823c-1.284 0-2.39-1.068-2.39-2.579 0-1.534 1.108-2.578 2.39-2.578 1.284 0 2.389 1.045 2.389 2.578.003 1.521-1.105 2.579-2.39 2.579Zm-9.271-6.823c-2.347 0-4.25 1.788-4.25 4.254 0 2.444 1.915 4.255 4.25 4.255 2.347 0 4.25-1.801 4.25-4.255 0-2.466-1.906-4.254-4.25-4.254Zm0 6.823c-1.284 0-2.39-1.068-2.39-2.579 0-1.534 1.108-2.578 2.39-2.578 1.284 0 2.389 1.045 2.389 2.578 0 1.521-1.105 2.579-2.39 2.579ZM37.55 16.289v1.8h4.304c-.132 1.01-.465 1.756-.974 2.267-.63.634-1.604 1.322-3.32 1.322-2.645 0-4.714-2.145-4.714-4.8 0-2.656 2.069-4.8 4.714-4.8 1.428 0 2.468.565 3.24 1.288l1.272-1.277c-1.073-1.032-2.5-1.822-4.502-1.822-3.629 0-6.674 2.967-6.674 6.6 0 3.644 3.043 6.602 6.674 6.602 1.96 0 3.43-.644 4.592-1.856 1.184-1.19 1.56-2.868 1.56-4.222 0-.421-.033-.8-.1-1.122h-6.075c.003-.002.003.02.003.02Zm45.123 1.401c-.355-.955-1.428-2.71-3.628-2.71-2.18 0-3.994 1.723-3.994 4.254 0 2.39 1.793 4.254 4.205 4.254 1.937 0 3.065-1.189 3.53-1.887l-1.439-.968c-.477.71-1.14 1.177-2.081 1.177-.951 0-1.617-.434-2.059-1.289l5.665-2.357c0 .003-.199-.474-.199-.474Zm-5.776 1.422c-.045-1.643 1.271-2.479 2.212-2.479.743 0 1.361.367 1.573.9l-3.785 1.579Zm-4.602 4.122h1.86V10.735h-1.86v12.5Zm-3.055-7.3h-.067c-.42-.5-1.217-.954-2.235-.954-2.114 0-4.061 1.868-4.061 4.267 0 2.389 1.937 4.234 4.06 4.234 1.006 0 1.816-.456 2.236-.968h.067v.611c0 1.624-.864 2.5-2.258 2.5-1.14 0-1.847-.824-2.135-1.512l-1.617.678c.464 1.123 1.703 2.512 3.75 2.512 2.18 0 4.028-1.29 4.028-4.434v-7.634H69.25v.7h-.01Zm-2.136 5.879c-1.284 0-2.357-1.078-2.357-2.566 0-1.502 1.073-2.589 2.357-2.589 1.272 0 2.258 1.1 2.258 2.589.012 1.488-.984 2.566-2.258 2.566Zm24.28-11.078h-4.449v12.5h1.86V18.5h2.59c2.06 0 4.084-1.499 4.084-3.878s-2.017-3.888-4.086-3.888Zm.054 6.02h-2.645v-4.289h2.645c1.393 0 2.18 1.155 2.18 2.145 0 .98-.797 2.144-2.18 2.144Zm11.486-1.788c-1.351 0-2.744.601-3.32 1.91l1.649.689c.355-.688 1.005-.923 1.693-.923.964 0 1.938.579 1.96 1.611v.132c-.333-.19-1.063-.479-1.937-.479-1.781 0-3.587.978-3.587 2.811 0 1.678 1.461 2.756 3.088 2.756 1.249 0 1.937-.567 2.366-1.222h.067v.967h1.794v-4.788c0-2.23-1.65-3.464-3.773-3.464Zm-.233 6.846c-.609 0-1.461-.3-1.461-1.068 0-.967 1.063-1.334 1.97-1.334.819 0 1.207.177 1.694.422a2.243 2.243 0 0 1-2.203 1.98Zm10.547-6.579-2.136 5.422h-.067l-2.213-5.422h-2.001l3.32 7.579-1.892 4.212h1.937l5.109-11.79h-2.057Zm-16.744 8h1.86V10.735h-1.86v12.5Z" fill="#FF553E"/><path d="m16.555 17.35-3.486-3.53 3.484-3.548a584.52 584.52 0 0 0 4.765 2.644c1.186.646.584 1.476 0 1.79-.126.064-1.178.65-2.739 1.518h-.001a1934.778 1934.778 0 0 0-2.023 1.127ZM15.92 17.703 12.58 14.32 1.412 25.692c.134-.04.277-.103.43-.188l.8-.443.024-.013a7698.1 7698.1 0 0 0 13.255-7.345ZM.5 25.623c-.328-.224-.5-.691-.5-1.282V3.391c0-.653.227-1.055.542-1.26l11.545 11.69L.5 25.623ZM1.397 2l11.18 11.322 3.33-3.39C13.841 8.792 2.586 2.576 1.84 2.174A1.43 1.43 0 0 0 1.397 2Z" fill="#FF553E"/></svg>