<svg width="68" height="68" fill="none" xmlns="http://www.w3.org/2000/svg"><path d="M61.625 21.25H59.5v-6.374a2.123 2.123 0 0 0-2.125-2.125h-51A6.383 6.383 0 0 0 0 19.125v38.25a6.383 6.383 0 0 0 6.375 6.376h55.25a2.126 2.126 0 0 0 2.125-2.125v-38.25a2.123 2.123 0 0 0-2.125-2.126Z" fill="#FA855C"/><path d="M6.375 17H55.25v4.25H6.375a2.126 2.126 0 0 1 0-4.25Z" fill="#F8FEFE"/><path d="M65.875 46.75h-12.75a6.375 6.375 0 1 1 0-12.75h12.75c1.173 0 2.125.953 2.125 2.126v8.5a2.126 2.126 0 0 1-2.125 2.125Z" fill="#FFD6C8"/><path d="M54.438 21.25 46.524 5.423a2.133 2.133 0 0 0-2.852-.952l-33.549 16.78h44.315Z" fill="#F8FEFE"/><path d="M4.25 21.25h41.688L38.025 5.423a2.127 2.127 0 0 0-2.852-.947L4.25 19.937v1.313Z" fill="#E6EAE8"/></svg>