<svg width="48" height="48" fill="none" xmlns="http://www.w3.org/2000/svg"><path d="m16.238 14.451-1.537-2.66-1.538-.115-.567 1.33 1.537 2.663c1.105.203 1.925-.226 2.105-1.218ZM31.764 14.451l1.536-2.66 1.539-.115.567 1.33-1.538 2.663c-1.105.203-1.925-.226-2.104-1.218Z" fill="#B9C1CB"/><path d="M25.25 10.301a4.543 4.543 0 0 0 3.274-4.35A4.53 4.53 0 0 0 24 1.427a4.53 4.53 0 0 0-4.524 4.524 4.543 4.543 0 0 0 3.275 4.35l.196 1.509c-2.848-.51-4.898-3.017-4.898-5.859A5.958 5.958 0 0 1 24 0a5.958 5.958 0 0 1 5.952 5.951c0 2.838-2.045 5.342-4.886 5.856l.183-1.506Z" fill="#DAE4EA"/><path d="M24 13.05c.487 0 .97.022 1.446.067v-5.94h-2.891v5.94c.477-.045.959-.068 1.445-.068Z" fill="#B9C1CB"/><path d="M24 48c9.76 0 17.67-7.911 17.67-17.67 0-9.76-7.91-17.67-17.67-17.67-9.759 0-17.67 7.91-17.67 17.67C6.33 40.089 14.241 48 24 48ZM26.142 4.327H21.86a.385.385 0 0 0-.384.385v2.479c0 .212.172.384.384.384h4.283a.385.385 0 0 0 .385-.384V4.712a.385.385 0 0 0-.385-.385ZM14.92 11.664l-2.543 1.468a.2.2 0 0 1-.274-.073l-1.9-3.292a.2.2 0 0 1 .073-.273l2.543-1.469a.2.2 0 0 1 .274.074l1.9 3.292a.2.2 0 0 1-.073.273ZM33.083 11.664l2.543 1.468a.2.2 0 0 0 .273-.073l1.9-3.292a.2.2 0 0 0-.072-.273l-2.544-1.469a.2.2 0 0 0-.273.074l-1.9 3.292a.2.2 0 0 0 .073.273Z" fill="#DAE4EA"/><path d="M24 44.787c7.986 0 14.459-6.473 14.459-14.457 0-7.985-6.473-14.458-14.458-14.458S9.543 22.345 9.543 30.329c0 7.985 6.473 14.458 14.458 14.458Z" fill="#F6F9F9"/><path d="M28.486 16.581a14.44 14.44 0 0 1 6.166 11.846c0 7.984-6.473 14.458-14.457 14.458-1.566 0-3.074-.25-4.486-.71A14.392 14.392 0 0 0 24 44.787c7.985 0 14.458-6.473 14.458-14.457 0-6.42-4.183-11.861-9.972-13.749Z" fill="#E7ECF1"/><path d="M24 30.194V18.387c0-.075.062-.137.137-.136 6.552.073 11.868 5.39 11.941 11.941.001.076-.06.137-.136.137H24.136a.135.135 0 0 1-.136-.135Z" fill="#DA4A54"/><path d="M35.942 30.33a.136.136 0 0 0 .137-.138 12.017 12.017 0 0 0-2.476-7.182 14.417 14.417 0 0 1 1.05 5.417c0 .645-.043 1.28-.125 1.903h1.414Z" fill="#D82E3D"/></svg>