<svg width="48" height="43" fill="none" xmlns="http://www.w3.org/2000/svg"><g clip-path="url('#clip0_1_822')"><path d="M44.054 5.78 24.74 4.504 0 5.78v31.349c0 .546.545.989 1.218.989h41.618c.672 0 1.218-.443 1.218-.99V5.78Z" fill="#F6F9F9"/><path d="m44.054 5.78-3.258-1.627V28.95c0 4.165-3.38 7.542-7.55 7.542H.017v.637c0 .547.443.99.99.99h42.055a.99.99 0 0 0 .99-.99V5.78Z" fill="#E7ECF1"/><path d="M43.064 0H1.009a.99.99 0 0 0-.99.99L0 5.78h44.054V.99a.99.99 0 0 0-.99-.99Z" fill="#61A2F9"/><path d="M43.064 0h-2.267v5.78h3.258V.99a.99.99 0 0 0-.991-.99Z" fill="#5490F9"/><path d="M3.596 26.084v-1.43c0-.177.238-.32.53-.32h30.05c.293 0 .531.143.531.32v1.43c0 .177-.238.32-.531.32H4.126c-.292 0-.53-.143-.53-.32ZM3.596 30.224v-1.431c0-.177.19-.32.426-.32h24.103c.235 0 .426.143.426.32v1.43c0 .177-.19.32-.426.32H4.022c-.235 0-.426-.142-.426-.32ZM3.596 19.572v-7.867c0-.97.855-1.757 1.911-1.757H16.16c1.055 0 1.911.787 1.911 1.757v7.867c0 .97-.855 1.757-1.912 1.757H5.508c-1.056 0-1.912-.786-1.912-1.757ZM20.234 19.572v-7.867c0-.97.856-1.757 1.912-1.757h10.651c1.056 0 1.912.787 1.912 1.757v7.867c0 .97-.856 1.757-1.912 1.757H22.146c-1.056 0-1.912-.786-1.912-1.757Z" fill="#DAE4EA"/><path d="m47.598 32.087-1.313-.286a7.026 7.026 0 0 0-.423-1.017l.727-1.13a.51.51 0 0 0-.068-.636l-2.046-2.043a.511.511 0 0 0-.637-.069l-1.13.727a7.246 7.246 0 0 0-1.02-.423l-.285-1.311a.51.51 0 0 0-.499-.402h-2.892a.51.51 0 0 0-.5.402l-.285 1.311c-.349.114-.69.255-1.018.423l-1.13-.727a.511.511 0 0 0-.638.069l-2.046 2.043a.51.51 0 0 0-.069.637l.728 1.129a7.238 7.238 0 0 0-.423 1.018l-1.313.285a.51.51 0 0 0-.402.498v2.889c0 .24.168.447.402.498l1.313.285c.114.349.255.69.423 1.018l-.728 1.129a.51.51 0 0 0 .07.636l2.045 2.044c.17.17.435.198.637.068l1.13-.726c.33.167.67.308 1.02.422l.285 1.312a.51.51 0 0 0 .499.402h2.892a.51.51 0 0 0 .499-.402l.285-1.312c.35-.113.691-.255 1.02-.422l1.13.726c.202.13.467.101.637-.068l2.046-2.044a.51.51 0 0 0 .069-.636l-.728-1.13c.167-.328.309-.668.423-1.017l1.313-.285a.51.51 0 0 0 .403-.498v-2.89a.51.51 0 0 0-.403-.497Zm-5.076 1.943a3.065 3.065 0 0 1-3.064 3.06 3.065 3.065 0 0 1-3.063-3.06 3.065 3.065 0 0 1 3.063-3.06 3.066 3.066 0 0 1 3.064 3.06Z" fill="#C8D2D8"/></g><defs><clipPath id="clip0_1_822"><path fill="#fff" d="M0 0h48v42.562H0z"/></clipPath></defs></svg>