<svg width="52" height="56" fill="none" xmlns="http://www.w3.org/2000/svg"><g filter="url('#filter0_d_1_803')"><path d="M47.238 9.603 28.615 8.087 4.764 9.603v37.222c0 .649.526 1.175 1.174 1.175h40.125c.649 0 1.175-.526 1.175-1.175V9.603Z" fill="#F6F9F9"/><path d="M47.238 9.603 43.375 7.67v29.442a8.955 8.955 0 0 1-8.956 8.955H4.764v.757c0 .649.526 1.175 1.174 1.175h40.125c.649 0 1.175-.526 1.175-1.175V9.603Z" fill="#E7ECF1"/><path d="M46.063 2.74H5.938c-.648 0-1.174.526-1.174 1.175v5.688h42.474V3.915c0-.65-.526-1.175-1.175-1.175Z" fill="#61A2F9"/><path d="M46.063 2.74h-2.688v6.863h3.863V3.915c0-.65-.526-1.175-1.175-1.175Z" fill="#5490F9"/><path d="M10.768 6.466h-.66a1.17 1.17 0 0 1-1.17-1.17V1.17c0-.646.524-1.17 1.17-1.17h.66c.646 0 1.17.524 1.17 1.17v4.125a1.17 1.17 0 0 1-1.17 1.17ZM18.55 6.466h-.66a1.17 1.17 0 0 1-1.171-1.17V1.17c0-.646.524-1.17 1.17-1.17h.66c.647 0 1.17.524 1.17 1.17v4.125a1.17 1.17 0 0 1-1.17 1.17ZM26.332 6.466h-.66a1.17 1.17 0 0 1-1.17-1.17V1.17c0-.646.524-1.17 1.17-1.17h.66c.647 0 1.17.524 1.17 1.17v4.125a1.17 1.17 0 0 1-1.17 1.17ZM34.114 6.466h-.66a1.17 1.17 0 0 1-1.17-1.17V1.17c0-.646.523-1.17 1.17-1.17h.66c.646 0 1.17.524 1.17 1.17v4.125a1.17 1.17 0 0 1-1.17 1.17ZM41.895 6.466h-.66a1.17 1.17 0 0 1-1.17-1.17V1.17c0-.646.523-1.17 1.17-1.17h.66c.646 0 1.17.524 1.17 1.17v4.125a1.17 1.17 0 0 1-1.17 1.17Z" fill="#DAE4EA"/><path d="m38.147 22.846-3.04-3.04a.627.627 0 0 0-.888 0l-10.5 10.5a.087.087 0 0 1-.123 0l-5.797-5.797a.627.627 0 0 0-.887 0l-3.058 3.059a.627.627 0 0 0 0 .887l9.342 9.342a.627.627 0 0 0 .887 0l14.064-14.064a.627.627 0 0 0 0-.887Z" fill="#80E29D"/></g><defs><filter id="filter0_d_1_803" x="-2" y="0" width="56" height="56" filterUnits="userSpaceOnUse" color-interpolation-filters="sRGB"><feFlood flood-opacity="0" result="BackgroundImageFix"/><feColorMatrix in="SourceAlpha" values="0 0 0 0 0 0 0 0 0 0 0 0 0 0 0 0 0 0 127 0" result="hardAlpha"/><feOffset dy="4"/><feGaussianBlur stdDeviation="2"/><feComposite in2="hardAlpha" operator="out"/><feColorMatrix values="0 0 0 0 0 0 0 0 0 0 0 0 0 0 0 0 0 0 0.25 0"/><feBlend in2="BackgroundImageFix" result="effect1_dropShadow_1_803"/><feBlend in="SourceGraphic" in2="effect1_dropShadow_1_803" result="shape"/></filter></defs></svg>