<svg width="48" height="42" fill="none" xmlns="http://www.w3.org/2000/svg"><path d="M45.087 7.319 19.162 5.85 0 7.319v28.916c0 .505.409.913.912.913h43.263a.912.912 0 0 0 .912-.912V7.319Z" fill="#F6F9F9"/><path d="M.912 37.148h43.263a.912.912 0 0 0 .913-.912V7.319l-3.864-.197v15.123a2.91 2.91 0 0 1-3.316 2.882 7.328 7.328 0 0 0-1.132-.072c-3.907.055-7.1 3.251-7.15 7.158l-.001.082a2.916 2.916 0 0 1-2.91 2.922H0v1.019c0 .504.409.912.912.912Z" fill="#E7ECF1"/><path d="M40.778 25.255v2.592c0 .1-.081.181-.181.181h-3.681a.181.181 0 0 1-.182-.18v-2.593c0-.1.082-.181.182-.181h3.68c.1 0 .182.08.182.181Zm0-4.316c0-.1-.081-.181-.181-.181h-3.681c-.1 0-.182.081-.182.181v2.592c0 .1.082.182.182.182h3.68c.1 0 .182-.081.182-.182V20.94Zm0-4.315c0-.1-.081-.182-.181-.182h-3.681c-.1 0-.182.082-.182.182v2.592c0 .1.082.181.182.181h3.68c.1 0 .182-.081.182-.181v-2.592Zm0-4.316c0-.1-.081-.181-.181-.181h-3.681c-.1 0-.182.081-.182.181V14.9c0 .1.082.181.182.181h3.68c.1 0 .182-.08.182-.18v-2.593Z" fill="#DA4A54"/><path d="M36.916 28.028h3.68c.1 0 .182-.08.182-.181v-2.592c0-.1-.081-.181-.181-.181h-1.592a2.898 2.898 0 0 1-1.098.052 7.244 7.244 0 0 0-.494-.053h-.497c-.1 0-.182.082-.182.182v2.592c0 .1.082.181.182.181Z" fill="#D82E3D"/><path d="M29.97 19.216c0 .1-.082.181-.182.181h-3.68a.181.181 0 0 1-.182-.181v-2.592c0-.1.081-.182.181-.182h3.681c.1 0 .181.082.181.182v2.592Zm0-6.908c0-.1-.082-.181-.182-.181h-3.68c-.1 0-.182.081-.182.181V14.9c0 .1.081.182.181.182h3.681c.1 0 .181-.082.181-.182v-2.592Zm-.182 12.766h-3.68c-.1 0-.182.08-.182.181v2.592c0 .1.081.181.182.181h3.68c.1 0 .182-.08.182-.18v-2.593c0-.1-.082-.181-.182-.181ZM9.877 15.082h3.698c.1 0 .182-.082.182-.182v-2.592c0-.1-.082-.181-.182-.181H9.877c-.1 0-.182.081-.182.181V14.9c0 .1.082.182.182.182Zm-.182 4.134c0 .1.082.181.182.181h3.698c.1 0 .182-.081.182-.181v-2.592c0-.1-.082-.182-.182-.182H9.877c-.1 0-.182.082-.182.182v2.592Zm20.274 1.723c0-.1-.08-.18-.181-.18h-3.68c-.1 0-.182.08-.182.18v2.593c0 .1.081.18.181.18h3.681c.1 0 .181-.08.181-.18v-2.593ZM9.695 23.532c0 .1.082.18.182.18h3.698c.1 0 .182-.08.182-.18v-2.593c0-.1-.082-.18-.182-.18H9.877c-.1 0-.182.08-.182.18v2.593Zm25.497 1.542h-3.68c-.1 0-.182.08-.182.181v2.592c0 .1.082.181.182.181h3.68c.1 0 .182-.08.182-.18v-2.593c0-.1-.081-.181-.182-.181Zm.182-4.135c0-.1-.081-.18-.182-.18h-3.68c-.1 0-.182.08-.182.18v2.593c0 .1.082.18.182.18h3.68c.1 0 .182-.08.182-.18v-2.593Zm0-4.315c0-.1-.081-.182-.182-.182h-3.68c-.1 0-.182.082-.182.182v2.592c0 .1.082.181.182.181h3.68c.1 0 .182-.081.182-.181v-2.592Zm0-4.316c0-.1-.081-.181-.182-.181h-3.68c-.1 0-.182.081-.182.181V14.9c0 .1.082.182.182.182h3.68c.1 0 .182-.082.182-.182v-2.592ZM9.695 32.158c0 .1.082.182.182.182h3.698c.1 0 .182-.081.182-.182v-2.587c0-.1-.082-.182-.182-.182H9.877c-.1 0-.182.082-.182.182v2.587Zm10.827-4.31c0 .1.081.18.181.18h3.68c.101 0 .182-.08.182-.18v-2.593c0-.1-.081-.181-.181-.181h-3.68c-.101 0-.182.081-.182.181v2.592Zm.181-8.45h3.68c.101 0 .182-.082.182-.182v-2.592c0-.1-.081-.182-.181-.182h-3.68c-.101 0-.182.082-.182.182v2.592c0 .1.081.181.181.181Zm-.181 4.134c0 .1.081.18.181.18h3.68c.101 0 .182-.08.182-.18v-2.593c0-.1-.081-.18-.181-.18h-3.68c-.101 0-.182.08-.182.18v2.593Zm0 8.626c0 .1.081.182.181.182h3.68c.101 0 .182-.081.182-.182v-2.587c0-.1-.081-.182-.181-.182h-3.68c-.101 0-.182.082-.182.182v2.587Zm3.862-20.031h-3.68c-.101 0-.182.081-.182.181V14.9c0 .1.081.181.181.181h3.68c.101 0 .182-.08.182-.18v-2.593c0-.1-.081-.181-.181-.181ZM9.695 27.847c0 .1.082.181.182.181h3.698c.1 0 .182-.08.182-.18v-2.593c0-.1-.082-.181-.182-.181H9.877c-.1 0-.182.081-.182.181v2.592Zm5.422 4.311c0 .1.082.182.182.182h3.68c.1 0 .182-.081.182-.182v-2.587c0-.1-.081-.182-.181-.182h-3.681c-.1 0-.181.082-.181.182v2.587Zm0-12.942c0 .1.082.181.182.181h3.68c.1 0 .182-.081.182-.181v-2.592c0-.1-.081-.182-.181-.182h-3.681c-.1 0-.181.082-.181.182v2.592Zm.182-4.134h3.68c.1 0 .182-.082.182-.182v-2.592c0-.1-.081-.181-.181-.181h-3.681c-.1 0-.181.081-.181.181V14.9c0 .1.08.182.18.182Zm-.181 8.45c0 .1.08.18.18.18h3.682c.1 0 .181-.08.181-.18v-2.593c0-.1-.081-.18-.181-.18h-3.681c-.1 0-.181.08-.181.18v2.593Zm0 4.315c0 .1.08.181.18.181h3.682c.1 0 .181-.08.181-.18v-2.593c0-.1-.081-.181-.181-.181h-3.681c-.1 0-.181.081-.181.181v2.592Z" fill="#DAE4EA"/><path d="M31.33 27.847c0 .1.081.181.182.181h3.68c.1 0 .182-.08.182-.181v-2.592a.18.18 0 0 0-.005-.041 7.287 7.287 0 0 0-4.039 2.438v.195Z" fill="#C6D0DA"/><path d="M44.175 1.987H.913A.913.913 0 0 0 0 2.899v4.42h45.087v-4.42a.913.913 0 0 0-.912-.912Z" fill="#61A2F9"/><path d="M4.309 19.216v-2.592c0-.1.08-.182.181-.182h3.663c.1 0 .181.082.181.182v2.592c0 .1-.081.181-.181.181H4.49a.181.181 0 0 1-.181-.181Zm0 4.316c0 .1.08.18.181.18h3.663c.1 0 .181-.08.181-.18v-2.593c0-.1-.081-.18-.181-.18H4.49c-.1 0-.181.08-.181.18v2.593Zm0 8.626c0 .1.08.182.181.182h3.663c.1 0 .181-.081.181-.182v-2.587c0-.1-.081-.182-.181-.182H4.49c-.1 0-.181.082-.181.182v2.587Zm0-4.31c0 .1.08.18.181.18h3.663c.1 0 .181-.08.181-.18v-2.593c0-.1-.081-.181-.181-.181H4.49c-.1 0-.181.08-.181.181v2.592Z" fill="#DA4A54"/><path d="M5.028 4.881H3.88a.91.91 0 0 1-.91-.909V.91A.91.91 0 0 1 3.88 0h1.148a.91.91 0 0 1 .91.91v3.062a.91.91 0 0 1-.91.91ZM10.982 4.881H9.925a.91.91 0 0 1-.91-.909V.91A.91.91 0 0 1 9.926 0h1.057a.91.91 0 0 1 .91.91v3.062a.91.91 0 0 1-.91.91ZM17.027 4.881H15.97a.91.91 0 0 1-.91-.909V.91A.91.91 0 0 1 15.97 0h1.057a.91.91 0 0 1 .91.91v3.062a.91.91 0 0 1-.91.91ZM23.074 4.881h-1.057a.91.91 0 0 1-.91-.909V.91a.91.91 0 0 1 .91-.909h1.057a.91.91 0 0 1 .909.91v3.062a.91.91 0 0 1-.91.91ZM29.119 4.881h-1.057a.91.91 0 0 1-.91-.909V.91a.91.91 0 0 1 .91-.909h1.057a.91.91 0 0 1 .909.91v3.062a.91.91 0 0 1-.91.91ZM35.164 4.881h-1.058a.91.91 0 0 1-.909-.909V.91a.91.91 0 0 1 .91-.909h1.057a.91.91 0 0 1 .909.91v3.062a.91.91 0 0 1-.91.91Z" fill="#fff"/><path d="M44.175 1.987h-2.057l-.545 1.44c0 .497-.348 1.454-.348 1.454V7.32h3.863v-4.42a.913.913 0 0 0-.913-.912Z" fill="#5490F9"/><path d="M41.209 4.881H40.15a.91.91 0 0 1-.909-.909V.91a.91.91 0 0 1 .91-.909h1.056a.91.91 0 0 1 .91.91v3.062a.91.91 0 0 1-.91.91Z" fill="#fff"/><path d="M40.744 41.497a7.256 7.256 0 1 0 0-14.511 7.256 7.256 0 0 0 0 14.511Z" fill="#80E29D"/><path d="M41.91 27.079a7.256 7.256 0 0 1-6.193 12.393A7.256 7.256 0 1 0 41.91 27.08Z" fill="#78D090"/><path d="m44.862 32.683-1.371-1.371a.37.37 0 0 0-.522 0l-2.653 2.652a.369.369 0 0 1-.521 0l-1.274-1.273a.369.369 0 0 0-.522 0l-1.371 1.37a.369.369 0 0 0 0 .523l3.167 3.166a.369.369 0 0 0 .521 0l4.546-4.545a.369.369 0 0 0 0-.522Z" fill="#F6F9F9"/><path d="M44.128 31.95a7.269 7.269 0 0 1-.232 2.22l.966-.965a.369.369 0 0 0 0-.522l-.734-.733Z" fill="#E7ECF1"/></svg>