<svg width="68" height="68" fill="none" xmlns="http://www.w3.org/2000/svg"><g clip-path="url('#clip0_1_686')"><path d="M40.44 37.445c9.313 8.355 14.8 16.392 15.467 28.132H12.092c.666-11.74 6.154-19.777 15.467-28.132l3.844-3.448-3.843-3.44c-9.314-8.355-14.802-16.391-15.468-28.132h43.815c-.667 11.74-6.154 19.777-15.468 28.133l-3.843 3.44 3.843 3.447Z" fill="#F6F9F9"/><path d="M11.67 4.881h44.658c1.502 0 2.72-1.092 2.72-2.44C59.048 1.093 57.83 0 56.328 0H11.67c-1.503 0-2.72 1.093-2.72 2.44 0 1.349 1.217 2.441 2.72 2.441Z" fill="#2F4859"/><path d="M24.958 51.497c-5.6 2.902-9.048 8.262-9.048 14.062h36.178c0-5.8-3.45-11.16-9.048-14.062l-7.502-3.887V26.408l5.304-2.748c3.627-1.88 6.062-5.124 6.688-8.773.168-.98-.664-1.87-1.77-1.87H22.239c-1.105 0-1.938.89-1.77 1.87.626 3.65 3.061 6.893 6.689 8.773l5.67 2.939v20.82l-7.87 4.078Z" fill="#F7BE56"/><path d="M56.328 63.118H11.67c-1.503 0-2.72 1.093-2.72 2.441 0 1.348 1.217 2.441 2.72 2.441h44.658c1.502 0 2.72-1.093 2.72-2.44 0-1.349-1.218-2.442-2.72-2.442Z" fill="#2F4859"/></g><defs><clipPath id="clip0_1_686"><path fill="#fff" d="M0 0h68v68H0z"/></clipPath></defs></svg>