<svg width="18" height="15" fill="none" xmlns="http://www.w3.org/2000/svg"><path fill-rule="evenodd" clip-rule="evenodd" d="M17.347 2.11c-.653.286-1.306.49-2.04.572.734-.449 1.306-1.143 1.55-1.959a7.511 7.511 0 0 1-2.244.857A3.607 3.607 0 0 0 12 .437a3.554 3.554 0 0 0-3.55 3.551c0 .286.04.572.08.817C5.552 4.64 2.94 3.254 1.185 1.09a3.391 3.391 0 0 0-.49 1.796c0 1.225.612 2.327 1.592 2.98a3.272 3.272 0 0 1-1.633-.45v.042c0 1.714 1.225 3.183 2.857 3.51a3.48 3.48 0 0 1-.938.122c-.245 0-.45-.04-.654-.081.45 1.428 1.756 2.449 3.347 2.49a7.194 7.194 0 0 1-4.408 1.51c-.286 0-.571 0-.857-.04a9.99 9.99 0 0 0 5.47 1.59c6.571 0 10.122-5.428 10.122-10.122v-.449a7.635 7.635 0 0 0 1.755-1.877Z" fill="#5BC17F"/></svg>