<svg width="52" height="56" viewBox="0 0 52 56" fill="none" xmlns="http://www.w3.org/2000/svg">
<g filter="url(#filter0_d_1_803)">
<path d="M47.2379 9.60269L28.6153 8.08704L4.76367 9.60269V46.8253C4.76367 47.474 5.28952 47.9999 5.93827 47.9999H46.0631C46.7119 47.9999 47.238 47.4738 47.238 46.825L47.2379 9.60269Z" fill="#F6F9F9"/>
<path d="M47.2379 9.60267L43.3747 7.67114V37.1131C43.3747 42.0589 39.3653 46.0683 34.4195 46.0683H4.76367V46.8253C4.76367 47.474 5.28952 47.9999 5.93827 47.9999H46.063C46.7118 47.9999 47.2379 47.4739 47.2379 46.825V9.60267Z" fill="#E7ECF1"/>
<path d="M46.0631 2.73987H5.93845C5.28961 2.73987 4.76367 3.26581 4.76367 3.91465V9.60274H47.2379V3.91465C47.2379 3.26581 46.7119 2.73987 46.0631 2.73987Z" fill="#61A2F9"/>
<path d="M46.0635 2.73987H43.375V9.60274H47.2382V3.91465C47.2382 3.26581 46.7122 2.73987 46.0635 2.73987Z" fill="#5490F9"/>
<path d="M10.768 6.46556H10.108C9.46156 6.46556 8.9375 5.9415 8.9375 5.29509V1.17047C8.9375 0.524062 9.46156 0 10.108 0H10.768C11.4144 0 11.9384 0.524062 11.9384 1.17047V5.295C11.9384 5.9415 11.4145 6.46556 10.768 6.46556Z" fill="#DAE4EA"/>
<path d="M18.5492 6.46556H17.8892C17.2428 6.46556 16.7188 5.9415 16.7188 5.29509V1.17047C16.7188 0.524062 17.2428 0 17.8892 0H18.5492C19.1956 0 19.7197 0.524062 19.7197 1.17047V5.295C19.7197 5.9415 19.1957 6.46556 18.5492 6.46556Z" fill="#DAE4EA"/>
<path d="M26.3324 6.46556H25.6724C25.026 6.46556 24.502 5.9415 24.502 5.29509V1.17047C24.502 0.524062 25.026 0 25.6724 0H26.3324C26.9788 0 27.5029 0.524062 27.5029 1.17047V5.295C27.5029 5.9415 26.9788 6.46556 26.3324 6.46556Z" fill="#DAE4EA"/>
<path d="M34.1137 6.46556H33.4537C32.8073 6.46556 32.2832 5.9415 32.2832 5.29509V1.17047C32.2832 0.524062 32.8072 0 33.4537 0H34.1137C34.7601 0 35.2841 0.524062 35.2841 1.17047V5.295C35.2841 5.9415 34.7601 6.46556 34.1137 6.46556Z" fill="#DAE4EA"/>
<path d="M41.8949 6.46556H41.2349C40.5885 6.46556 40.0645 5.9415 40.0645 5.29509V1.17047C40.0645 0.524062 40.5884 0 41.2349 0H41.8949C42.5413 0 43.0654 0.524062 43.0654 1.17047V5.295C43.0654 5.9415 42.5413 6.46556 41.8949 6.46556Z" fill="#DAE4EA"/>
<path d="M38.1471 22.8461L35.1064 19.8054C34.8615 19.5605 34.4644 19.5605 34.2194 19.8054L23.7193 30.3055C23.6852 30.3397 23.63 30.3397 23.5959 30.3055L17.7994 24.5091C17.5544 24.2641 17.1574 24.2641 16.9124 24.5091L13.8536 27.5678C13.6087 27.8128 13.6087 28.2098 13.8536 28.4548L23.196 37.7971C23.441 38.0421 23.838 38.042 24.083 37.7971L38.1471 23.733C38.392 23.4881 38.392 23.0911 38.1471 22.8461Z" fill="#80E29D"/>
</g>
<defs>
<filter id="filter0_d_1_803" x="-2" y="0" width="56" height="56" filterUnits="userSpaceOnUse" color-interpolation-filters="sRGB">
<feFlood flood-opacity="0" result="BackgroundImageFix"/>
<feColorMatrix in="SourceAlpha" type="matrix" values="0 0 0 0 0 0 0 0 0 0 0 0 0 0 0 0 0 0 127 0" result="hardAlpha"/>
<feOffset dy="4"/>
<feGaussianBlur stdDeviation="2"/>
<feComposite in2="hardAlpha" operator="out"/>
<feColorMatrix type="matrix" values="0 0 0 0 0 0 0 0 0 0 0 0 0 0 0 0 0 0 0.25 0"/>
<feBlend mode="normal" in2="BackgroundImageFix" result="effect1_dropShadow_1_803"/>
<feBlend mode="normal" in="SourceGraphic" in2="effect1_dropShadow_1_803" result="shape"/>
</filter>
</defs>
</svg>
